#!OML:ASF E:\motion texture\Top Level 1\Subject 1\Session 1\male.ASF
:FULLY-SPECIFIED
:DEGREES
390
root -2.83764 18.0174 5.6866 49.0644 -77.7636 -39.6874
lowerback -1.58183 4.07581 5.95977
upperback -1.46788 5.30835 3.02075
thorax -0.374277 2.58884 -0.137062
lowerneck -14.1253 -9.35455 -11.489
upperneck 9.95518 -11.9287 11.0412
head 6.70961 -5.43888 4.10499
rclavicle 1.53064e-014 2.34566e-014
rhumerus -34.2794 -26.5051 -73.028
rradius 16.2483
rwrist 34.4874
rhand -7.00805 -30.2138
rfingers 7.12502
rthumb 18.8631 -59.3191
lclavicle 1.53064e-014 2.34566e-014
lhumerus -46.5202 20.5625 75.5534
lradius 32.2752
lwrist -27.3763
lhand 1.67313 15.7702
lfingers 7.12502
lthumb 27.1919 43.8307
rfemur -2.66248 1.84369 34.7585
rtibia 16.3909
rfoot -10.8629 -12.5466
rtoes 0.417705
lfemur -32.3971 -1.16548 -8.55165
ltibia 28.7654
lfoot -5.91172 3.51791
ltoes -15.539
391
root -2.99917 18.0029 5.69425 50.6523 -78.1277 -41.1595
lowerback -1.60843 4.03582 5.95455
upperback -1.47784 5.25243 3.03454
thorax -0.373928 2.56045 -0.119972
lowerneck -14.2891 -9.15929 -11.3081
upperneck 10.0372 -11.6617 10.8779
head 6.71066 -5.30905 4.05415
rclavicle 3.28989e-014 5.56597e-014
rhumerus -35.8915 -28.4355 -71.4105
rradius 15.5502
rwrist 36.7156
rhand -6.4938 -29.7664
rfingers 7.12502
rthumb 19.3576 -58.8229
lclavicle 3.28989e-014 5.56597e-014
lhumerus -46.6339 20.7322 75.2369
lradius 32.2285
lwrist -27.5321
lhand 1.55946 15.7246
lfingers 7.12502
lthumb 27.0832 43.802
rfemur -2.41069 1.8081 34.7055
rtibia 16.7956
rfoot -11.0287 -12.1326
rtoes -0.262135
lfemur -32.6009 -1.31972 -8.52498
ltibia 27.5975
lfoot -5.78196 3.62412
ltoes -15.3457
392
root -3.16145 17.9878 5.7022 52.3168 -78.4921 -42.7191
lowerback -1.62895 3.98891 5.94078
upperback -1.48343 5.18785 3.04684
thorax -0.373406 2.52794 -0.100273
lowerneck -14.4488 -8.9552 -11.1171
upperneck 10.119 -11.3857 10.7141
head 6.71029 -5.17488 4.00274
rclavicle 4.86029e-014 5.1684e-015
rhumerus -37.5701 -30.2805 -69.6402
rradius 14.9248
rwrist 38.9476
rhand -5.98926 -29.3042
rfingers 7.12502
rthumb 19.8427 -58.3112
lclavicle 4.86029e-014 5.1684e-015
lhumerus -46.7362 20.9241 74.8713
lradius 32.1449
lwrist -27.7298
lhand 1.41917 15.7048
lfingers 7.12502
lthumb 26.949 43.8031
rfemur -2.19092 1.75586 34.627
rtibia 17.2741
rfoot -11.1747 -11.7004
rtoes -0.933321
lfemur -32.7765 -1.5136 -8.48216
ltibia 26.5156
lfoot -5.63148 3.75326
ltoes -15.1339
393
root -3.32448 17.9721 5.71043 54.0747 -78.8573 -44.3834
lowerback -1.64481 3.93606 5.91855
upperback -1.48392 5.11572 3.05748
thorax -0.371077 2.4919 -0.077984
lowerneck -14.6039 -8.74243 -10.917
upperneck 10.2005 -11.1011 10.5516
head 6.7087 -5.03642 3.95141
rclavicle -2.00276e-014 -4.13472e-014
rhumerus -39.3033 -32.012 -67.7425
rradius 14.3727
rwrist 41.1487
rhand -5.49676 -28.8309
rfingers 7.12502
rthumb 20.3161 -57.7883
lclavicle -2.00276e-014 -4.13472e-014
lhumerus -46.8256 21.1384 74.4583
lradius 32.0248
lwrist -27.9701
lhand 1.25523 15.7138
lfingers 7.12502
lthumb 26.7921 43.8363
rfemur -2.00525 1.68939 34.5226
rtibia 17.8275
rfoot -11.2912 -11.2505
rtoes -1.5965
lfemur -32.9244 -1.74173 -8.42427
ltibia 25.5262
lfoot -5.4652 3.90729
ltoes -14.8991
394
root -3.48829 17.956 5.71898 55.9286 -79.2254 -46.1557
lowerback -1.65599 3.87778 5.88412
upperback -1.47959 5.03684 3.06551
thorax -0.367393 2.45279 -0.0520277
lowerneck -14.7546 -8.52138 -10.7076
upperneck 10.2836 -10.8085 10.3895
head 6.70659 -4.89403 3.89967
rclavicle -1.07841e-014 -1.70955e-014
rhumerus -41.0713 -33.5992 -65.7534
rradius 13.893
rwrist 43.2743
rhand -5.01824 -28.3597
rfingers 7.12502
rthumb 20.7759 -57.2675
lclavicle -1.07841e-014 -1.70955e-014
lhumerus -46.9021 21.3752 73.9986
lradius 31.8683
lwrist -28.255
lhand 1.07068 15.7532
lfingers 7.12502
lthumb 26.6155 43.9026
rfemur -1.85507 1.60926 34.3876
rtibia 18.4563
rfoot -11.367 -10.7822
rtoes -2.25722
lfemur -33.0446 -1.99972 -8.35824
ltibia 24.6345
lfoot -5.28693 4.08515
ltoes -14.6411
395
root -3.65286 17.9395 5.72782 57.8929 -79.5968 -48.0508
lowerback -1.66276 3.81423 5.83624
upperback -1.47075 4.95148 3.07022
thorax -0.3625 2.41074 -0.0224007
lowerneck -14.9016 -8.29214 -10.4888
upperneck 10.3705 -10.5083 10.2279
head 6.70495 -4.74775 3.84746
rclavicle 8.94531e-015 2.90226e-014
rhumerus -42.8469 -35.0186 -63.7153
rradius 13.4829
rwrist 45.2832
rhand -4.55591 -27.8884
rfingers 7.12502
rthumb 21.22 -56.7469
lclavicle 8.94531e-015 2.90226e-014
lhumerus -46.9667 21.6338 73.4928
lradius 31.6776
lwrist -28.5834
lhand 0.867813 15.8287
lfingers 7.12502
lthumb 26.4213 44.0074
rfemur -1.74265 1.51705 34.2207
rtibia 19.1626
rfoot -11.3939 -10.2962
rtoes -2.88807
lfemur -33.1377 -2.28125 -8.28832
ltibia 23.8444
lfoot -5.10348 4.28351
ltoes -14.354
